# xmcd CD database file
# Generated: lun nov 11 15:46:10 2002 by KSCD
# 
# Track frame offsets:
#       150
#       16314
#       32551
#       51330
#       70972
#       93882
#       113131
#       126029
#       148554
#       163279
#       183090
#       200193
#       217570
#       234488
#       248798
#       268269
#
# Disc length: 3767 seconds
#
# Revision: 6
# Processed by: cddbd v1.4PL0 Copyright (c) Steve Scherf et al.
# Submitted via: Kscd 1.3.3
#
DISCID=e10eb510
DTITLE=Pino Daniele - Yes I Know My Way
DYEAR=1998
DGENRE=
TTITLE0=Quando
TTITLE1=Io Per Lei
TTITLE2=Che Male C'è
TTITLE3=Amore Senza Fine
TTITLE4=Senza Peccato
TTITLE5=Dubbi Non Ho
TTITLE6=Resta Resta Cu'Mme
TTITLE7=Anna Verrà
TTITLE8=Che Soddisfazione
TTITLE9=Quanno Chiove
TTITLE10=Napule è
TTITLE11=A Testa In Giù
TTITLE12=Je Sò Pazzo
TTITLE13=A Me Me Piace 'O Blues
TTITLE14=Che Dio Ti Benedica
TTITLE15=Per Te
EXTD=YEAR: 1998
EXTT0=
EXTT1=
EXTT2=
EXTT3=
EXTT4=
EXTT5=
EXTT6=
EXTT7=
EXTT8=
EXTT9=
EXTT10=
EXTT11=
EXTT12=
EXTT13=
EXTT14=
EXTT15=
PLAYORDER=
